<?xml version="1.0" encoding="UTF-8"?>
<svg width="71px" height="85px" viewBox="0 0 71 85" version="1.1" xmlns="http://www.w3.org/2000/svg" xmlns:xlink="http://www.w3.org/1999/xlink">
    <!-- Generator: Sketch 54.1 (76490) - https://sketchapp.com -->
    <title>icon41</title>
    <desc>Created with Sketch.</desc>
    <g id="Page-1" stroke="none" stroke-width="1" fill="none" fill-rule="evenodd">
        <g id="Artboard" transform="translate(-352.000000, -201.000000)" fill="#FFEC17" fill-rule="nonzero">
            <g id="icon41" transform="translate(352.000000, 201.000000)">
                <path d="M69,10.5 L2,10.5 C1.17157288,10.5 0.5,11.1715729 0.5,12 L0.5,45 C0.5,45.8284271 1.17157288,46.5 2,46.5 L11.5,46.5 L11.5,75 C11.5,75.8284271 12.1715729,76.5 13,76.5 L20.5,76.5 L20.5,83 C20.5,83.8284271 21.1715729,84.5 22,84.5 L58,84.5 C58.8284271,84.5 59.5,83.8284271 59.5,83 L59.5,46.5 L69,46.5 C69.8284271,46.5 70.5,45.8284271 70.5,45 L70.5,12 C70.5,11.1715729 69.8284271,10.5 69,10.5 Z M3.5,43.5 L3.5,13.5 L11.5,13.5 L11.5,43.5 L3.5,43.5 Z M14.5,13.5 L47.5,13.5 L47.5,73.5 L14.5,73.5 L14.5,13.5 Z M56.5,81.5 L23.5,81.5 L23.5,76.5 L49,76.5 C49.8284271,76.5 50.5,75.8284271 50.5,75 L50.5,21.5 L56.5,21.5 L56.5,81.5 Z M67.5,43.5 L59.5,43.5 L59.5,20 C59.5,19.1715729 58.8284271,18.5 58,18.5 L50.5,18.5 L50.5,13.5 L67.5,13.5 L67.5,43.5 Z" id="Shape"></path>
                <path d="M25.5,48.77 C25.5,47.9415729 24.8284271,47.27 24,47.27 C23.1715729,47.27 22.5,47.9415729 22.5,48.77 C22.5,52.34 25.5,55.31 29.5,55.92 L29.5,58 C29.5,58.8284271 30.1715729,59.5 31,59.5 C31.8284271,59.5 32.5,58.8284271 32.5,58 L32.5,55.92 C36.5,55.31 39.5,52.34 39.5,48.77 C39.5,45.2 36.5,42.23 32.5,41.62 L32.5,33.13 C34.8,33.64 36.5,35.28 36.5,37.24 C36.5,38.0684271 37.1715729,38.74 38,38.74 C38.8284271,38.74 39.5,38.0684271 39.5,37.24 C39.5,33.67 36.5,30.7 32.5,30.09 L32.5,28 C32.5,27.1715729 31.8284271,26.5 31,26.5 C30.1715729,26.5 29.5,27.1715729 29.5,28 L29.5,30.08 C25.5,30.69 22.5,33.66 22.5,37.23 C22.5,40.8 25.5,43.77 29.5,44.37 L29.5,52.87 C27.2,52.36 25.5,50.72 25.5,48.77 Z M36.5,48.77 C36.5,50.77 34.81,52.37 32.5,52.88 L32.5,44.66 C34.81,45.17 36.5,46.82 36.5,48.77 Z M25.5,37.24 C25.5,35.24 27.19,33.64 29.5,33.13 L29.5,41.33 C27.19,40.82 25.5,39.18 25.5,37.23 L25.5,37.24 Z" id="Shape"></path>
                <circle id="Oval" cx="14" cy="2" r="2"></circle>
                <circle id="Oval" cx="24" cy="2" r="2"></circle>
            </g>
        </g>
    </g>
</svg>