<?xml version="1.0" encoding="UTF-8"?>
<svg width="73px" height="91px" viewBox="0 0 73 91" version="1.1" xmlns="http://www.w3.org/2000/svg" xmlns:xlink="http://www.w3.org/1999/xlink">
    <!-- Generator: Sketch 54.1 (76490) - https://sketchapp.com -->
    <title>icon39</title>
    <desc>Created with Sketch.</desc>
    <g id="Page-1" stroke="none" stroke-width="1" fill="none" fill-rule="evenodd">
        <g id="Artboard" transform="translate(-261.000000, -131.000000)" fill="#FFEC17" fill-rule="nonzero">
            <g id="icon39" transform="translate(261.000000, 131.000000)">
                <path d="M56.82,33.86 C56.1965924,33.8598287 55.5788785,33.9786199 55,34.21 L55,33.74 C54.9944968,30.7765134 52.5934866,28.3755032 49.63,28.37 L49.38,28.37 C48.5134426,28.3773761 47.6619127,28.5971257 46.9,29.01 C46.3837719,26.5148385 44.1880005,24.7239907 41.64,24.72 C40.7258486,24.7190678 39.824512,24.9349773 39.01,25.35 L39.01,17.59 L48.51,17.59 C49.3384271,17.59 50.01,16.9184271 50.01,16.09 L50.01,1.5 C50.0100089,1.10043658 49.8506016,0.71738238 49.5671306,0.435788579 C49.2836595,0.154194779 48.8995545,-0.00266375625 48.5,9.99200722e-16 L17.5,9.99200722e-16 C16.6715729,1.88737914e-15 16,0.671572875 16,1.5 L16,16.09 C16,16.9184271 16.6715729,17.59 17.5,17.59 L28,17.59 L28,54.29 L19.21,47.09 C15.5531133,44.0302457 10.1685512,44.2555049 6.78,47.61 C6.23534606,48.1482998 6.18361777,49.010438 6.66,49.61 L28,76.89 L28,89.5 C28,90.3284271 28.6715729,91 29.5,91 C30.3284271,91 31,90.3284271 31,89.5 L31,76.37 C30.9986467,76.0362744 30.88604,75.7125303 30.68,75.45 L9.92,48.89 C12.219896,47.4256764 15.2042036,47.6240904 17.29,49.38 L28.55,58.61 C28.9970412,58.975878 29.6144635,59.0525282 30.1373995,58.8070685 C30.6603355,58.5616087 30.9958457,58.0376636 31,57.46 L31,12.61 C31.0054786,11.3033612 32.0633612,10.2454786 33.37,10.24 L33.62,10.24 C34.9305423,10.2399884 35.9944935,11.2994692 36,12.61 L36,44.5 C36,45.3284271 36.6715729,46 37.5,46 C38.3284271,46 39,45.3284271 39,44.5 L39,30 C39.1364774,28.6658786 40.2902577,27.6700302 41.63,27.73 C42.9366388,27.7354786 43.9945214,28.7933612 44,30.1 L44,33.5 C44,33.5 44,33.58 44,33.62 C44,33.66 44,33.7 44,33.74 L44,44.5 C44,45.3284271 44.6715729,46 45.5,46 C46.3284271,46 47,45.3284271 47,44.5 L47,33.75 C47.0054786,32.4433612 48.0633612,31.3854786 49.37,31.38 L49.62,31.38 C50.9305423,31.3799884 51.9944935,32.4394692 52,33.75 L52,44.5 C52,45.3284271 52.6715729,46 53.5,46 C54.3284271,46 55,45.3284271 55,44.5 L55,39 C54.9289285,38.4690454 55.0865094,37.9328717 55.4335589,37.5248025 C55.7806085,37.1167332 56.2845228,36.8751048 56.82,36.86 C58.0085312,36.8597999 58.9781921,37.8116689 59,39 L59,64.89 C59.0085818,69.0182209 57.366811,72.9786329 54.44,75.89 C54.1460443,76.183167 53.9867382,76.585053 54,77 L54,88.5 C54,89.3284271 54.6715729,90 55.5,90 C56.3284271,90 57,89.3284271 57,88.5 L57,77.57 C60.2249311,74.1370302 62.0139319,69.600124 62,64.89 L62,39 C61.9780287,36.1547983 59.6652866,33.8599152 56.82,33.86 Z M33.63,7.23 L33.38,7.23 C30.408708,7.23 28,9.63870805 28,12.61 L28,14.61 L19,14.61 L19,3 L47,3 L47,14.59 L39,14.59 L39,12.59 C38.9890028,9.63041939 36.589596,7.23548069 33.63,7.23 Z" id="Shape"></path>
                <path d="M71.5,6 L56.5,6 C55.6715729,6 55,6.67157288 55,7.5 C55,8.32842712 55.6715729,9 56.5,9 L71.5,9 C72.3284271,9 73,8.32842712 73,7.5 C73,6.67157288 72.3284271,6 71.5,6 Z" id="Path"></path>
                <path d="M56.67,15 C56.0789805,14.4492823 55.1579806,14.4655322 54.5867564,15.0367564 C54.0155322,15.6079806 53.9992823,16.5289805 54.55,17.12 L67.92,30.52 C68.521424,30.9624763 69.3567143,30.8952469 69.8796283,30.3622768 C70.4025423,29.8293068 70.4538507,28.9928876 70,28.4 L56.67,15 Z" id="Path"></path>
                <path d="M13.06,19.94 C12.4743649,19.3550932 11.5256351,19.3550932 10.94,19.94 L0.94,29.94 C0.538693645,30.3139412 0.373501637,30.8771111 0.509228916,31.4085778 C0.644956196,31.9400446 1.05995545,32.3550438 1.59142218,32.4907711 C2.12288892,32.6264984 2.68605884,32.4613064 3.06,32.06 L13.06,22.06 C13.6449068,21.4743649 13.6449068,20.5256351 13.06,19.94 Z" id="Path"></path>
            </g>
        </g>
    </g>
</svg>