<?xml version="1.0" encoding="UTF-8"?>
<svg width="76px" height="71px" viewBox="0 0 76 71" version="1.1" xmlns="http://www.w3.org/2000/svg" xmlns:xlink="http://www.w3.org/1999/xlink">
    <!-- Generator: Sketch 54.1 (76490) - https://sketchapp.com -->
    <title>icon40</title>
    <desc>Created with Sketch.</desc>
    <g id="Page-1" stroke="none" stroke-width="1" fill="none" fill-rule="evenodd">
        <g id="Artboard" transform="translate(-425.000000, -129.000000)" fill="#FFEC17" fill-rule="nonzero">
            <g id="icon40" transform="translate(425.000000, 129.000000)">
                <path d="M69.23,0 L6.77,0 C3.06,0 0.09,2.43 0,5.58 L0,51.32 C0,54.45 3,57 6.77,57 L36,57 L36,68 L18.5,68 C17.6715729,68 17,68.6715729 17,69.5 C17,70.3284271 17.6715729,71 18.5,71 L57.5,71 C58.3284271,71 59,70.3284271 59,69.5 C59,68.6715729 58.3284271,68 57.5,68 L39,68 L39,57 L69.23,57 C73,57 76,54.45 76,51.32 L76,5.68 C76,2.55 73,0 69.23,0 Z M73,51.32 C73,52.77 71.27,54 69.23,54 L6.77,54 C4.77,54 3,52.77 3,51.32 L3,5.62 C3,4.18 4.73,3 6.77,3 L69.23,3 C71.23,3 73,4.23 73,5.68 L73,51.32 Z" id="Shape"></path>
                <path d="M43.27,19.63 C42.5376406,19.2648202 41.6477385,19.5540384 41.27,20.28 L33.19,36 C32.9452731,36.4769496 32.9735856,37.0482294 33.2642726,37.4986439 C33.5549596,37.9490585 34.0638587,38.210179 34.5992726,38.1836439 C35.1346865,38.1571089 35.6152731,37.8469496 35.86,37.37 L43.92,21.62 C44.278564,20.8901371 43.9902599,20.0074832 43.27,19.63 L43.27,19.63 Z" id="Path"></path>
                <path d="M52.86,19.08 C52.2689805,18.5292823 51.3479806,18.5455322 50.7767564,19.1167564 C50.2055322,19.6879806 50.1892823,20.6089805 50.74,21.2 L58.22,28.67 L50.74,36.14 C50.3386936,36.5139412 50.1735016,37.0771111 50.3092289,37.6085778 C50.4449562,38.1400446 50.8599554,38.5550438 51.3914222,38.6907711 C51.9228889,38.8264984 52.4860588,38.6613064 52.86,38.26 L61.4,29.73 C61.9849068,29.1443649 61.9849068,28.1956351 61.4,27.61 L52.86,19.08 Z" id="Path"></path>
                <path d="M26.4,19.08 C25.8143649,18.4950932 24.8656351,18.4950932 24.28,19.08 L15.74,27.62 C15.1550932,28.2056351 15.1550932,29.1543649 15.74,29.74 L24.28,38.28 C24.8710195,38.8307177 25.7920194,38.8144678 26.3632436,38.2432436 C26.9344678,37.6720194 26.9507177,36.7510195 26.4,36.16 L18.92,28.69 L26.4,21.2 C26.9849068,20.6143649 26.9849068,19.6656351 26.4,19.08 Z" id="Path"></path>
            </g>
        </g>
    </g>
</svg>