<?xml version="1.0" encoding="UTF-8"?>
<svg width="80px" height="79px" viewBox="0 0 80 79" version="1.1" xmlns="http://www.w3.org/2000/svg" xmlns:xlink="http://www.w3.org/1999/xlink">
    <!-- Generator: Sketch 54.1 (76490) - https://sketchapp.com -->
    <title>icon42</title>
    <desc>Created with Sketch.</desc>
    <g id="Page-1" stroke="none" stroke-width="1" fill="none" fill-rule="evenodd">
        <g id="Artboard" transform="translate(-79.000000, -160.000000)" fill="#FFEC17" fill-rule="nonzero">
            <g id="icon42" transform="translate(79.000000, 160.000000)">
                <path d="M78,75.5 L73.5,75.5 L73.5,14 C73.5,13.1715729 72.8284271,12.5 72,12.5 L58,12.5 C57.1715729,12.5 56.5,13.1715729 56.5,14 L56.5,75.5 L48.5,75.5 L48.5,37 C48.5,36.1715729 47.8284271,35.5 47,35.5 L33,35.5 C32.1715729,35.5 31.5,36.1715729 31.5,37 L31.5,75.5 L23.5,75.5 L23.5,59 C23.5,58.1715729 22.8284271,57.5 22,57.5 L8,57.5 C7.17157288,57.5 6.5,58.1715729 6.5,59 L6.5,75.5 L2,75.5 C1.17157288,75.5 0.5,76.1715729 0.5,77 C0.5,77.8284271 1.17157288,78.5 2,78.5 L78,78.5 C78.8284271,78.5 79.5,77.8284271 79.5,77 C79.5,76.1715729 78.8284271,75.5 78,75.5 Z M59.5,15.5 L70.5,15.5 L70.5,75.5 L59.5,75.5 L59.5,15.5 Z M34.5,38.5 L45.5,38.5 L45.5,75.5 L34.5,75.5 L34.5,38.5 Z M9.5,60.5 L20.5,60.5 L20.5,75.5 L9.5,75.5 L9.5,60.5 Z" id="Shape"></path>
                <path d="M3,47.5 C3.3976907,47.4996499 3.77896528,47.341385 4.06,47.06 L45.5,5.62 L45.5,12 C45.5,12.8284271 46.1715729,13.5 47,13.5 C47.8284271,13.5 48.5,12.8284271 48.5,12 L48.5,2 C48.4984819,1.8113562 48.461154,1.62471663 48.39,1.45 L48.39,1.45 C48.2376497,1.07778964 47.9422104,0.782350315 47.57,0.63 L47.57,0.63 C47.3904491,0.549450616 47.1967206,0.505266903 47,0.5 L37,0.5 C36.1715729,0.5 35.5,1.17157288 35.5,2 C35.5,2.82842712 36.1715729,3.5 37,3.5 L43.38,3.5 L1.94,44.94 C1.51155939,45.3689736 1.38348361,46.0136842 1.61542605,46.573847 C1.84736849,47.1340099 2.39371669,47.4994667 3,47.5 Z" id="Path"></path>
            </g>
        </g>
    </g>
</svg>